<?xml version="1.0" encoding="iso-8859-1"?>
<!-- Generator: Adobe Illustrator 19.0.0, SVG Export Plug-In . SVG Version: 6.00 Build 0)  -->
<svg version="1.1" id="Capa_1" xmlns="http://www.w3.org/2000/svg" xmlns:xlink="http://www.w3.org/1999/xlink" x="0px" y="0px"
	 viewBox="0 0 489.2 489.2" style="enable-background:new 0 0 489.2 489.2;" xml:space="preserve">
<g>
	<g>
		<g>
			<path d="M39.5,377.35h160.9v44.1H169c-5.2,0-9.5,4.2-9.5,9.5v27.5c0,5.2,4.2,9.5,9.5,9.5h151.2c5.2,0,9.5-4.2,9.5-9.5v-27.5
				c0-5.2-4.2-9.5-9.5-9.5h-31.4v-44.1h160.9c21.8,0,39.5-17.7,39.5-39.5V60.75c0-21.8-17.7-39.5-39.5-39.5H39.5
				C17.7,21.25,0,38.95,0,60.75v277.1C0,359.65,17.7,377.35,39.5,377.35z M53.9,75.15h381.4v248H53.9V75.15z M339,185.05h-15.1
				c-2.1-10.6-6.3-20.5-12.1-29.2l10.7-10.7c2.6-2.6,2.6-6.8,0-9.4l-12.8-12.8c-2.6-2.6-6.8-2.6-9.4,0l-10.8,10.6
				c-8.7-5.8-18.6-10-29.2-12.1v-15.1c0-3.7-3-6.7-6.7-6.7h-18.2c-3.7,0-6.7,3-6.7,6.7v15.1c-10.6,2.1-20.5,6.3-29.2,12.1
				l-10.7-10.7c-2.6-2.6-6.8-2.6-9.4,0l-12.8,12.8c-2.6,2.6-2.6,6.8,0,9.4l10.7,10.7c-5.8,8.7-10,18.6-12.1,29.2h-15.1
				c-3.7,0-6.7,3-6.7,6.7v18.2c0,3.7,3,6.7,6.7,6.7h15.1c2.1,10.6,6.3,20.5,12.1,29.2l-10.7,10.7c-2.6,2.6-2.6,6.8,0,9.4l12.8,12.8
				c2.6,2.6,6.8,2.6,9.4,0l10.7-10.7c8.7,5.8,18.6,10,29.2,12.1v15.1c0,3.7,3,6.7,6.7,6.7h18.2c3.7,0,6.7-3,6.7-6.7v-15.1
				c10.6-2.1,20.5-6.3,29.2-12.1l10.7,10.7c2.6,2.6,6.8,2.6,9.4,0l12.8-12.8c2.6-2.6,2.6-6.8,0-9.4l-10.7-10.7
				c5.8-8.7,10-18.6,12.1-29.2h15.1c3.7,0,6.7-3,6.7-6.7v-18.2C345.7,188.05,342.7,185.05,339,185.05z M244.6,237.35
				c-20.2,0-36.5-16.3-36.5-36.5s16.3-36.5,36.5-36.5s36.5,16.3,36.5,36.5C281.1,220.95,264.8,237.35,244.6,237.35z"/>
		</g>
	</g>
</g>
<g>
</g>
<g>
</g>
<g>
</g>
<g>
</g>
<g>
</g>
<g>
</g>
<g>
</g>
<g>
</g>
<g>
</g>
<g>
</g>
<g>
</g>
<g>
</g>
<g>
</g>
<g>
</g>
<g>
</g>
</svg>
